<svg width="1212" height="293" viewBox="0 0 1212 293" fill="none" xmlns="http://www.w3.org/2000/svg">
<rect width="1212" height="293" fill="url(#paint0_linear_101_45280)"/>
<path d="M429.69 75.7713C429.691 76.0893 429.782 76.4007 429.952 76.6656L430.787 77.9643C430.929 78.1863 431.123 78.3684 431.349 78.4943C431.576 78.6203 431.83 78.6862 432.087 78.6862H435.101C435.358 78.6862 435.612 78.6203 435.839 78.4943C436.065 78.3684 436.259 78.1863 436.401 77.9643L437.236 76.6656C437.406 76.4006 437.497 76.0895 437.498 75.7713L437.5 73.8325H429.688L429.69 75.7713ZM425 61.6997C425 63.9428 425.803 65.9892 427.127 67.5528C427.934 68.5057 429.195 70.4965 429.676 72.1759C429.678 72.1891 429.68 72.2022 429.682 72.2153H437.506C437.508 72.2022 437.509 72.1896 437.511 72.1759C437.992 70.4965 439.254 68.5057 440.061 67.5528C441.384 65.9892 442.188 63.9428 442.188 61.6997C442.188 56.7763 438.326 52.7871 433.567 52.8023C428.586 52.818 425 56.9967 425 61.6997ZM433.594 57.6554C431.44 57.6554 429.688 59.4698 429.688 61.6997C429.688 62.1466 429.338 62.5086 428.906 62.5086C428.475 62.5086 428.125 62.1466 428.125 61.6997C428.125 58.5775 430.578 56.0377 433.594 56.0377C434.025 56.0377 434.375 56.3997 434.375 56.8466C434.375 57.2935 434.025 57.6554 433.594 57.6554Z" fill="#0A84FF" fill-opacity="0.5"/>
<path d="M37.4517 93.1541C37.3165 93.4396 37.265 93.7605 37.3049 94.0761L37.4993 95.6229C37.5324 95.8872 37.6282 96.139 37.778 96.3558C37.9279 96.5726 38.1272 96.7477 38.3582 96.8655L41.0613 98.2438C41.2923 98.3616 41.5479 98.4184 41.8052 98.4092C42.0626 98.4 42.3137 98.3251 42.5363 98.1911L43.8392 97.4078C44.105 97.248 44.3194 97.0106 44.4556 96.7252L45.2846 94.9868L38.2768 91.4137L37.4517 93.1541ZM39.2486 78.3848C38.2914 80.3971 38.1388 82.6004 38.659 84.6086C38.9761 85.8325 39.2584 88.1956 38.9733 89.9222C38.9694 89.9348 38.9651 89.9473 38.9612 89.96L45.9804 93.5389C45.9878 93.528 45.9945 93.5174 46.0021 93.506C47.1502 92.2194 49.1316 91.0106 50.2619 90.5247C52.1167 89.7274 53.7105 88.259 54.6677 86.2467C56.7687 81.8299 55.0065 76.4847 50.7308 74.3215C46.2557 72.0572 41.2555 74.1657 39.2486 78.3848ZM48.684 78.6876C46.7518 77.7024 44.4054 78.5285 43.4538 80.529C43.2631 80.9299 42.795 81.0947 42.4078 80.8973C42.0206 80.6998 41.8614 80.2152 42.0521 79.8143C43.3844 77.0133 46.6689 75.8569 49.3743 77.2363C49.7615 77.4338 49.9207 77.9184 49.73 78.3193C49.5393 78.7202 49.0712 78.885 48.684 78.6876Z" fill="#0A84FF" fill-opacity="0.5"/>
<path d="M1101.93 217.237C1102.44 217.775 1103.09 218.147 1103.8 218.303L1107.3 219.071C1107.89 219.202 1108.51 219.179 1109.1 219.003C1109.69 218.826 1110.22 218.503 1110.66 218.06L1115.76 212.886C1116.2 212.444 1116.52 211.897 1116.71 211.294C1116.89 210.691 1116.92 210.05 1116.81 209.429L1116.14 205.795C1116.01 205.054 1115.66 204.37 1115.15 203.831L1112.05 200.542L1098.82 213.957L1101.93 217.237ZM1071.43 201.449C1075.03 205.249 1079.67 207.338 1084.42 207.714C1087.31 207.943 1092.64 209.15 1096.14 211.17C1096.17 211.189 1096.19 211.208 1096.21 211.227L1109.47 197.791C1109.45 197.765 1109.44 197.742 1109.42 197.715C1107.54 194.043 1106.49 188.504 1106.33 185.504C1106.07 180.581 1104.15 175.734 1100.56 171.933C1092.67 163.591 1079.74 163.463 1071.7 171.661C1063.28 180.241 1063.9 193.48 1071.43 201.449ZM1079.52 179.838C1075.87 183.537 1075.81 189.621 1079.38 193.399C1080.09 194.156 1080.08 195.37 1079.35 196.111C1078.62 196.853 1077.45 196.84 1076.73 196.082C1071.73 190.792 1071.82 182.276 1076.93 177.097C1077.66 176.356 1078.83 176.369 1079.55 177.126C1080.26 177.883 1080.25 179.097 1079.52 179.838Z" fill="#0A84FF" fill-opacity="0.5"/>
<path d="M939.412 58.0597L942.601 52.0295L934.036 47.1731C933.466 46.8501 932.757 47.0648 932.445 47.6545L921.563 68.2283C921.251 68.818 921.458 69.5523 922.028 69.8752L936.418 78.034C936.987 78.3569 937.696 78.1423 938.008 77.5526L945.701 63.009L939.877 59.7067C939.311 59.3861 939.102 58.645 939.412 58.0597ZM936.618 70.078C936.463 70.3707 936.105 70.479 935.822 70.3187L928.627 66.2394C928.345 66.0791 928.24 65.7086 928.395 65.4159L928.582 65.0612C928.737 64.7686 929.095 64.6602 929.378 64.8205L936.573 68.8999C936.855 69.0601 936.96 69.4307 936.805 69.7233L936.618 70.078ZM938.119 67.2403C937.964 67.5329 937.606 67.6412 937.323 67.481L930.128 63.4016C929.846 63.2414 929.741 62.8708 929.896 62.5782L930.083 62.2234C930.238 61.9308 930.596 61.8225 930.879 61.9827L938.074 66.0621C938.356 66.2223 938.461 66.5929 938.306 66.8856L938.119 67.2403ZM939.807 64.0478L939.62 64.4025C939.465 64.6951 939.107 64.8035 938.824 64.6432L931.629 60.5638C931.347 60.4036 931.242 60.033 931.397 59.7404L931.584 59.3857C931.739 59.093 932.097 58.9847 932.38 59.145L939.575 63.2243C939.857 63.3846 939.962 63.7551 939.807 64.0478ZM946.595 61.3196L946.452 61.5901L940.97 58.482L943.972 52.8065L944.233 52.9546C944.507 53.11 944.71 53.369 944.797 53.6778L946.691 60.4003C946.778 60.7091 946.742 61.0403 946.595 61.3196Z" fill="#0A84FF" fill-opacity="0.5"/>
<path d="M268.17 153.106L269.98 139.926L250.187 137.014C248.871 136.82 247.67 137.701 247.493 138.99L241.319 183.956C241.142 185.245 242.059 186.438 243.375 186.632L276.627 191.525C277.943 191.719 279.144 190.838 279.321 189.549L283.685 157.762L270.226 155.782C268.92 155.589 267.995 154.385 268.17 153.106ZM271.364 176.909C271.276 177.549 270.67 177.993 270.017 177.897L253.391 175.451C252.738 175.354 252.275 174.752 252.363 174.113L252.47 173.338C252.557 172.698 253.164 172.253 253.817 172.349L270.443 174.796C271.096 174.892 271.558 175.494 271.47 176.134L271.364 176.909ZM272.216 170.707C272.128 171.346 271.521 171.791 270.868 171.695L254.242 169.248C253.589 169.152 253.127 168.55 253.215 167.911L253.321 167.135C253.409 166.496 254.015 166.051 254.668 166.147L271.294 168.594C271.947 168.69 272.41 169.292 272.322 169.932L272.216 170.707ZM273.174 163.729L273.067 164.505C272.979 165.144 272.373 165.589 271.72 165.493L255.094 163.046C254.441 162.95 253.978 162.348 254.066 161.708L254.173 160.933C254.26 160.293 254.867 159.849 255.52 159.945L272.146 162.392C272.799 162.488 273.261 163.09 273.174 163.729ZM284.192 154.07L284.111 154.661L271.444 152.797L273.147 140.392L273.75 140.481C274.384 140.574 274.954 140.906 275.34 141.407L283.724 152.33C284.11 152.832 284.276 153.459 284.192 154.07Z" fill="#0A84FF" fill-opacity="0.5"/>
<defs>
<linearGradient id="paint0_linear_101_45280" x1="606" y1="0" x2="606" y2="293" gradientUnits="userSpaceOnUse">
<stop stop-color="#0A84FF"/>
<stop offset="1" stop-color="#02203D" stop-opacity="0.77"/>
</linearGradient>
</defs>
</svg>
